# Blender v2.78 (sub 0) OBJ File: ''
# www.blender.org
o Icosphere
v -0.585858 -0.999948 -0.862181
v 0.137749 -0.447168 -0.336455
v -0.862246 -0.447168 -0.011531
v -1.480284 -0.447164 -0.862181
v -0.862246 -0.447168 -1.712830
v 0.137749 -0.447168 -1.387906
v -0.309470 0.447272 -0.011531
v -1.309465 0.447272 -0.336455
v -1.309465 0.447272 -1.387906
v -0.309470 0.447272 -1.712830
v 0.308568 0.447268 -0.862181
v -0.585858 1.000052 -0.862181
v -0.748314 -0.850602 -0.362185
v -0.160535 -0.850602 -0.553169
v -0.322989 -0.525686 -0.053169
v 0.264790 -0.525684 -0.862181
v -0.160535 -0.850602 -1.171192
v -1.111588 -0.850600 -0.862181
v -1.274048 -0.525684 -0.362184
v -0.748314 -0.850602 -1.362176
v -1.274048 -0.525684 -1.362178
v -0.322989 -0.525686 -1.671192
v 0.365200 0.000052 -0.553168
v 0.365200 0.000052 -1.171193
v -0.585858 0.000052 0.137819
v 0.001927 0.000052 -0.053164
v -1.536916 0.000052 -0.553168
v -1.173644 0.000052 -0.053164
v -1.173644 0.000052 -1.671197
v -1.536916 0.000052 -1.171193
v 0.001927 0.000052 -1.671197
v -0.585858 0.000052 -1.862181
v 0.102331 0.525788 -0.362184
v -0.848727 0.525790 -0.053169
v -1.436506 0.525788 -0.862181
v -0.848727 0.525790 -1.671192
v 0.102331 0.525788 -1.362178
v -0.423403 0.850706 -0.362185
v -0.060128 0.850704 -0.862181
v -1.011181 0.850706 -0.553169
v -1.011181 0.850706 -1.171192
v -0.423403 0.850706 -1.362176
vt 0.9990 0.2847
vt 0.9990 0.1449
vt 0.8591 0.2847
vt 0.4276 0.1419
vt 0.4276 0.0020
vt 0.2877 0.1419
vt 0.2847 0.9990
vt 0.1449 0.9990
vt 0.2847 0.8591
vt 0.1439 0.8581
vt 0.1439 0.9980
vt 0.2837 0.8581
vt 0.8581 0.1439
vt 0.9980 0.1439
vt 0.8581 0.2837
vt 0.2847 0.5704
vt 0.1449 0.5704
vt 0.2847 0.4306
vt 0.5704 0.7133
vt 0.4306 0.7133
vt 0.5704 0.5734
vt 0.4276 0.7133
vt 0.2877 0.7133
vt 0.4276 0.5734
vt 0.7133 0.1419
vt 0.5734 0.1419
vt 0.7133 0.0020
vt 0.5704 0.4276
vt 0.4306 0.4276
vt 0.5704 0.2877
vt 0.2847 0.7133
vt 0.1449 0.7133
vt 0.2847 0.5734
vt 0.1419 0.7133
vt 0.0020 0.7133
vt 0.1419 0.5734
vt 0.4276 0.5704
vt 0.4276 0.4306
vt 0.2877 0.5704
vt 0.8561 0.1419
vt 0.8561 0.0020
vt 0.7163 0.1419
vt 0.7133 0.5704
vt 0.7133 0.4306
vt 0.5734 0.5704
vt 0.1419 0.9990
vt 0.1419 0.8591
vt 0.0020 0.9990
vt 0.1419 0.1419
vt 0.0020 0.1419
vt 0.1419 0.0020
vt 0.9990 0.1419
vt 0.8591 0.1419
vt 0.9990 0.0020
vt 0.7133 0.8561
vt 0.5734 0.8561
vt 0.7133 0.7163
vt 0.4276 0.4276
vt 0.2877 0.4276
vt 0.4276 0.2877
vt 0.8561 0.4306
vt 0.7163 0.5704
vt 0.8561 0.5704
vt 0.5704 0.8561
vt 0.4306 0.8561
vt 0.5704 0.7163
vt 0.0010 0.9980
vt 0.0010 0.8581
vt 0.1409 0.8581
vt 0.7163 0.8561
vt 0.8561 0.7163
vt 0.8561 0.8561
vt 0.7163 0.7133
vt 0.8561 0.5734
vt 0.8561 0.7133
vt 0.4306 0.1419
vt 0.5704 0.1419
vt 0.5704 0.0020
vt 0.2847 0.1449
vt 0.1449 0.2847
vt 0.2847 0.2847
vt 0.0020 0.4276
vt 0.1419 0.2877
vt 0.1419 0.4276
vt 0.9980 0.0010
vt 0.8581 0.0010
vt 0.8581 0.1409
vt 0.7153 0.8551
vt 0.8551 0.7153
vt 0.7153 0.7153
vt 0.7153 0.5724
vt 0.7153 0.7123
vt 0.8551 0.5724
vt 0.7123 0.7153
vt 0.5724 0.7153
vt 0.5724 0.8551
vt 0.8551 0.4296
vt 0.7153 0.5694
vt 0.7153 0.4296
vt 0.4296 0.8551
vt 0.5694 0.7153
vt 0.4296 0.7153
vt 0.0020 0.5704
vt 0.1419 0.5704
vt 0.1419 0.4306
vt 0.1419 0.7163
vt 0.0020 0.8561
vt 0.1419 0.8561
vt 0.5734 0.2847
vt 0.7133 0.2847
vt 0.7133 0.1449
vt 0.8561 0.1449
vt 0.8561 0.2847
vt 0.7163 0.2847
vt 0.2847 0.7163
vt 0.1449 0.8561
vt 0.2847 0.8561
vt 0.4306 0.5704
vt 0.5704 0.5704
vt 0.5704 0.4306
vt 0.4276 0.7163
vt 0.4276 0.8561
vt 0.2877 0.8561
vt 0.8561 0.2877
vt 0.7163 0.4276
vt 0.8561 0.4276
vt 0.4306 0.2847
vt 0.5704 0.2847
vt 0.5704 0.1449
vt 0.7153 0.4266
vt 0.7153 0.2867
vt 0.8551 0.2867
vt 0.2867 0.8551
vt 0.4266 0.7153
vt 0.2867 0.7153
vt 0.7133 0.7133
vt 0.5734 0.7133
vt 0.7133 0.5734
vt 0.1439 0.8551
vt 0.1439 0.7153
vt 0.2837 0.7153
vt 0.7153 0.2837
vt 0.8551 0.1439
vt 0.7153 0.1439
vt 0.7133 0.4276
vt 0.5734 0.4276
vt 0.7133 0.2877
vt 0.0010 0.8551
vt 0.0010 0.7153
vt 0.1409 0.7153
vt 0.7153 0.1409
vt 0.8551 0.0010
vt 0.7153 0.0010
vt 0.5724 0.5724
vt 0.5724 0.7123
vt 0.7123 0.5724
vt 0.5694 0.5724
vt 0.4296 0.5724
vt 0.4296 0.7123
vt 0.5724 0.5694
vt 0.7123 0.4296
vt 0.5724 0.4296
vt 0.5724 0.2867
vt 0.5724 0.4266
vt 0.7123 0.2867
vt 0.4266 0.5724
vt 0.2867 0.5724
vt 0.2867 0.7123
vt 0.2837 0.5724
vt 0.1439 0.7123
vt 0.1439 0.5724
vt 0.7123 0.1439
vt 0.5724 0.2837
vt 0.5724 0.1439
vt 0.7123 0.0010
vt 0.5724 0.0010
vt 0.5724 0.1409
vt 0.1409 0.5724
vt 0.0010 0.7123
vt 0.0010 0.5724
vt 0.5694 0.4296
vt 0.4296 0.5694
vt 0.4296 0.4296
vt 0.5694 0.2867
vt 0.4296 0.2867
vt 0.4296 0.4266
vt 0.2867 0.5694
vt 0.4266 0.4296
vt 0.2867 0.4296
vt 0.4296 0.1439
vt 0.4296 0.2837
vt 0.5694 0.1439
vt 0.2837 0.4296
vt 0.1439 0.4296
vt 0.1439 0.5694
vt 0.4296 0.1409
vt 0.5694 0.0010
vt 0.4296 0.0010
vt 0.1419 0.2847
vt 0.0020 0.2847
vt 0.1419 0.1449
vt 0.2847 0.0020
vt 0.2847 0.1419
vt 0.1449 0.1419
vt 0.2877 0.2847
vt 0.4276 0.1449
vt 0.4276 0.2847
vt 0.2847 0.2877
vt 0.2847 0.4276
vt 0.1449 0.4276
vt 0.0010 0.5694
vt 0.0010 0.4296
vt 0.1409 0.4296
vt 0.2867 0.4266
vt 0.4266 0.2867
vt 0.2867 0.2867
vt 0.1439 0.2867
vt 0.1439 0.4266
vt 0.2837 0.2867
vt 0.4266 0.1439
vt 0.2867 0.1439
vt 0.2867 0.2837
vt 0.4266 0.0010
vt 0.2867 0.1409
vt 0.2867 0.0010
vt 0.0010 0.4266
vt 0.1409 0.2867
vt 0.0010 0.2867
vt 0.2837 0.1439
vt 0.1439 0.1439
vt 0.1439 0.2837
vt 0.1439 0.1409
vt 0.2837 0.0010
vt 0.1439 0.0010
vt 0.1409 0.1439
vt 0.0010 0.1439
vt 0.0010 0.2837
vt 0.0010 0.1409
vt 0.0010 0.0010
vt 0.1409 0.0010
vn 0.1024 -0.9435 0.3151
vn 0.7002 -0.6617 0.2680
vn -0.2680 -0.9435 0.1947
vn -0.2680 -0.9435 -0.1947
vn 0.1024 -0.9435 -0.3151
vn 0.9050 -0.3304 0.2680
vn 0.0247 -0.3304 0.9435
vn -0.8897 -0.3304 0.3151
vn -0.5746 -0.3304 -0.7488
vn 0.5346 -0.3304 -0.7779
vn 0.8026 -0.1256 0.5831
vn -0.3066 -0.1256 0.9435
vn -0.9921 -0.1256 0.0000
vn -0.3066 -0.1256 -0.9435
vn 0.8026 -0.1256 -0.5831
vn 0.4089 0.6617 0.6284
vn -0.4713 0.6617 0.5831
vn -0.7002 0.6617 -0.2680
vn 0.0385 0.6617 -0.7488
vn 0.7240 0.6617 -0.1947
vn 0.2680 0.9435 -0.1947
vn 0.4911 0.7947 -0.3568
vn 0.4089 0.6617 -0.6284
vn -0.1024 0.9435 -0.3151
vn -0.1876 0.7947 -0.5773
vn -0.4713 0.6617 -0.5831
vn -0.3313 0.9435 0.0000
vn -0.6071 0.7947 0.0000
vn -0.7002 0.6617 0.2680
vn -0.1024 0.9435 0.3151
vn -0.1876 0.7947 0.5773
vn 0.0385 0.6617 0.7488
vn 0.2680 0.9435 0.1947
vn 0.4911 0.7947 0.3568
vn 0.7240 0.6617 0.1947
vn 0.8897 0.3304 -0.3151
vn 0.7947 0.1876 -0.5773
vn 0.5746 0.3304 -0.7488
vn -0.0247 0.3304 -0.9435
vn -0.3035 0.1876 -0.9342
vn -0.5346 0.3304 -0.7779
vn -0.9050 0.3304 -0.2680
vn -0.9822 0.1876 0.0000
vn -0.9050 0.3304 0.2680
vn -0.5346 0.3304 0.7779
vn -0.3035 0.1876 0.9342
vn -0.0247 0.3304 0.9435
vn 0.5746 0.3304 0.7488
vn 0.7947 0.1876 0.5773
vn 0.8897 0.3304 0.3151
vn 0.3066 0.1256 -0.9435
vn 0.3035 -0.1876 -0.9342
vn 0.0247 -0.3304 -0.9435
vn -0.8026 0.1256 -0.5831
vn -0.7947 -0.1876 -0.5773
vn -0.8897 -0.3304 -0.3151
vn -0.8026 0.1256 0.5831
vn -0.7947 -0.1876 0.5773
vn -0.5746 -0.3304 0.7488
vn 0.3066 0.1256 0.9435
vn 0.3035 -0.1876 0.9342
vn 0.5346 -0.3304 0.7779
vn 0.9921 0.1256 0.0000
vn 0.9822 -0.1876 0.0000
vn 0.9050 -0.3304 -0.2680
vn 0.4713 -0.6617 -0.5831
vn 0.1876 -0.7947 -0.5773
vn -0.0385 -0.6617 -0.7488
vn -0.4089 -0.6617 -0.6284
vn -0.4911 -0.7947 -0.3568
vn -0.7240 -0.6617 -0.1947
vn -0.7240 -0.6617 0.1947
vn -0.4911 -0.7947 0.3568
vn -0.4089 -0.6617 0.6284
vn 0.7002 -0.6617 -0.2680
vn 0.6071 -0.7947 0.0000
vn 0.3313 -0.9435 0.0000
vn -0.0385 -0.6617 0.7488
vn 0.1876 -0.7947 0.5773
vn 0.4713 -0.6617 0.5831
s off
f 1/1/1 14/2/1 13/3/1
f 2/4/2 14/5/2 16/6/2
f 1/7/3 13/8/3 18/9/3
f 1/10/4 18/11/4 20/12/4
f 1/13/5 20/14/5 17/15/5
f 2/16/6 16/17/6 23/18/6
f 3/19/7 15/20/7 25/21/7
f 4/22/8 19/23/8 27/24/8
f 5/25/9 21/26/9 29/27/9
f 6/28/10 22/29/10 31/30/10
f 2/31/11 23/32/11 26/33/11
f 3/34/12 25/35/12 28/36/12
f 4/37/13 27/38/13 30/39/13
f 5/40/14 29/41/14 32/42/14
f 6/43/15 31/44/15 24/45/15
f 7/46/16 33/47/16 38/48/16
f 8/49/17 34/50/17 40/51/17
f 9/52/18 35/53/18 41/54/18
f 10/55/19 36/56/19 42/57/19
f 11/58/20 37/59/20 39/60/20
f 39/61/21 42/62/21 12/63/21
f 39/64/22 37/65/22 42/66/22
f 37/67/23 10/68/23 42/69/23
f 42/70/24 41/71/24 12/72/24
f 42/73/25 36/74/25 41/75/25
f 36/76/26 9/77/26 41/78/26
f 41/79/27 40/80/27 12/81/27
f 41/82/28 35/83/28 40/84/28
f 35/85/29 8/86/29 40/87/29
f 40/88/30 38/89/30 12/90/30
f 40/91/31 34/92/31 38/93/31
f 34/94/32 7/95/32 38/96/32
f 38/97/33 39/98/33 12/99/33
f 38/100/34 33/101/34 39/102/34
f 33/103/35 11/104/35 39/105/35
f 24/106/36 37/107/36 11/108/36
f 24/109/37 31/110/37 37/111/37
f 31/112/38 10/113/38 37/114/38
f 32/115/39 36/116/39 10/117/39
f 32/118/40 29/119/40 36/120/40
f 29/121/41 9/122/41 36/123/41
f 30/124/42 35/125/42 9/126/42
f 30/127/43 27/128/43 35/129/43
f 27/130/44 8/131/44 35/132/44
f 28/133/45 34/134/45 8/135/45
f 28/136/46 25/137/46 34/138/46
f 25/139/47 7/140/47 34/141/47
f 26/142/48 33/143/48 7/144/48
f 26/145/49 23/146/49 33/147/49
f 23/148/50 11/149/50 33/150/50
f 31/151/51 32/152/51 10/153/51
f 31/154/52 22/155/52 32/156/52
f 22/157/53 5/158/53 32/159/53
f 29/160/54 30/161/54 9/162/54
f 29/163/55 21/164/55 30/165/55
f 21/166/56 4/167/56 30/168/56
f 27/169/57 28/170/57 8/171/57
f 27/172/58 19/173/58 28/174/58
f 19/175/59 3/176/59 28/177/59
f 25/178/60 26/179/60 7/180/60
f 25/181/61 15/182/61 26/183/61
f 15/184/62 2/185/62 26/186/62
f 23/187/63 24/188/63 11/189/63
f 23/190/64 16/191/64 24/192/64
f 16/193/65 6/194/65 24/195/65
f 17/196/66 22/197/66 6/198/66
f 17/199/67 20/200/67 22/201/67
f 20/202/68 5/203/68 22/204/68
f 20/205/69 21/206/69 5/207/69
f 20/208/70 18/209/70 21/210/70
f 18/211/71 4/212/71 21/213/71
f 18/214/72 19/215/72 4/216/72
f 18/217/73 13/218/73 19/219/73
f 13/220/74 3/221/74 19/222/74
f 16/223/75 17/224/75 6/225/75
f 16/226/76 14/227/76 17/228/76
f 14/229/77 1/230/77 17/231/77
f 13/232/78 15/233/78 3/234/78
f 13/235/79 14/236/79 15/237/79
f 14/238/80 2/239/80 15/240/80
