# Blender v2.78 (sub 0) OBJ File: ''
# www.blender.org
o Cone
v 0.000000 -1.000000 -1.000000
v 0.195090 -1.000000 -0.980785
v 0.382683 -1.000000 -0.923880
v 0.555570 -1.000000 -0.831470
v 0.707107 -1.000000 -0.707107
v 0.831470 -1.000000 -0.555570
v 0.923880 -1.000000 -0.382683
v 0.980785 -1.000000 -0.195090
v 1.000000 -1.000000 -0.000000
v 0.000000 1.000000 0.000000
v 0.980785 -1.000000 0.195090
v 0.923880 -1.000000 0.382683
v 0.831470 -1.000000 0.555570
v 0.707107 -1.000000 0.707107
v 0.555570 -1.000000 0.831470
v 0.382683 -1.000000 0.923880
v 0.195090 -1.000000 0.980785
v -0.000000 -1.000000 1.000000
v -0.195091 -1.000000 0.980785
v -0.382684 -1.000000 0.923879
v -0.555571 -1.000000 0.831469
v -0.707107 -1.000000 0.707106
v -0.831470 -1.000000 0.555570
v -0.923880 -1.000000 0.382683
v -0.980785 -1.000000 0.195089
v -1.000000 -1.000000 -0.000001
v -0.980785 -1.000000 -0.195091
v -0.923879 -1.000000 -0.382684
v -0.831469 -1.000000 -0.555571
v -0.707106 -1.000000 -0.707108
v -0.555569 -1.000000 -0.831470
v -0.382682 -1.000000 -0.923880
v -0.195089 -1.000000 -0.980786
vt 0.0000 0.0000
vt 1.0000 0.0000
vt 1.0000 1.0000
vt 0.0000 0.0000
vt 1.0000 1.0000
vt 0.0000 0.0000
vt 1.0000 1.0000
vt 0.0000 0.0000
vt 1.0000 1.0000
vt 0.0000 0.0000
vt 1.0000 1.0000
vt 0.0000 0.0000
vt 1.0000 1.0000
vt 0.0000 0.0000
vt 1.0000 1.0000
vt 0.0000 0.0000
vt 1.0000 1.0000
vt 0.0000 0.0000
vt 1.0000 1.0000
vt 0.0000 0.0000
vt 1.0000 1.0000
vt 0.0000 0.0000
vt 1.0000 1.0000
vt 0.0000 0.0000
vt 1.0000 1.0000
vt 0.0000 0.0000
vt 1.0000 1.0000
vt 0.0000 0.0000
vt 1.0000 1.0000
vt 0.0000 0.0000
vt 1.0000 1.0000
vt 0.0000 0.0000
vt 1.0000 1.0000
vt 0.0000 0.0000
vt 1.0000 1.0000
vt 0.0000 0.0000
vt 1.0000 1.0000
vt 0.0000 0.0000
vt 1.0000 1.0000
vt 0.0000 0.0000
vt 1.0000 1.0000
vt 0.0000 0.0000
vt 1.0000 1.0000
vt 0.0000 0.0000
vt 1.0000 1.0000
vt 0.0000 0.0000
vt 1.0000 1.0000
vt 0.0000 0.0000
vt 1.0000 1.0000
vt 0.0000 0.0000
vt 1.0000 1.0000
vt 0.0000 0.0000
vt 1.0000 1.0000
vt 0.0000 0.0000
vt 1.0000 1.0000
vt 0.0000 0.0000
vt 1.0000 1.0000
vt 0.0000 0.0000
vt 1.0000 1.0000
vt 0.0000 0.0000
vt 1.0000 1.0000
vt 0.0000 0.0000
vt 1.0000 1.0000
vt 0.0000 0.0000
vt 1.0000 1.0000
vt 0.5975 0.0096
vt 0.0096 0.4025
vt 0.9904 0.5975
vt 0.4025 0.9904
vt 0.5000 1.0000
vt 0.5975 0.9904
vt 0.6913 0.9619
vt 0.7778 0.9157
vt 0.8536 0.8536
vt 0.9157 0.7778
vt 0.9619 0.6913
vt 1.0000 0.5000
vt 0.9904 0.4025
vt 0.9619 0.3087
vt 0.9157 0.2222
vt 0.8536 0.1464
vt 0.7778 0.0843
vt 0.6913 0.0381
vt 0.5000 0.0000
vt 0.4025 0.0096
vt 0.3087 0.0381
vt 0.2222 0.0843
vt 0.1464 0.1464
vt 0.0843 0.2222
vt 0.0381 0.3087
vt 0.0000 0.5000
vt 0.0096 0.5975
vt 0.0381 0.6913
vt 0.0843 0.7778
vt 0.1464 0.8536
vt 0.2222 0.9157
vt 0.3087 0.9619
vn 0.0000 -0.5033 -0.8641
vn 0.0000 1.0000 0.0000
vn 0.1686 -0.5033 -0.8475
vn 0.3307 -0.5033 -0.7983
vn 0.4801 -0.5033 -0.7185
vn 0.6110 -0.5033 -0.6110
vn 0.7185 -0.5033 -0.4801
vn 0.7983 -0.5033 -0.3307
vn 0.8475 -0.5033 -0.1686
vn 0.8641 -0.5033 0.0000
vn 0.8475 -0.5033 0.1686
vn 0.7983 -0.5033 0.3307
vn 0.7185 -0.5033 0.4801
vn 0.6110 -0.5033 0.6110
vn 0.4801 -0.5033 0.7185
vn 0.3307 -0.5033 0.7983
vn 0.1686 -0.5033 0.8475
vn 0.0000 -0.5033 0.8641
vn -0.1686 -0.5033 0.8475
vn -0.3307 -0.5033 0.7983
vn -0.4801 -0.5033 0.7185
vn -0.6110 -0.5033 0.6110
vn -0.7185 -0.5033 0.4801
vn -0.7983 -0.5033 0.3307
vn -0.8475 -0.5033 0.1686
vn -0.8641 -0.5033 0.0000
vn -0.8475 -0.5033 -0.1686
vn -0.7983 -0.5033 -0.3307
vn -0.7185 -0.5033 -0.4801
vn -0.6110 -0.5033 -0.6110
vn -0.4801 -0.5033 -0.7185
vn -0.3307 -0.5033 -0.7983
vn -0.1686 -0.5033 -0.8475
s 1
f 1/1/1 10/2/2 2/3/3
f 2/4/3 10/2/2 3/5/4
f 3/6/4 10/2/2 4/7/5
f 4/8/5 10/2/2 5/9/6
f 5/10/6 10/2/2 6/11/7
f 6/12/7 10/2/2 7/13/8
f 7/14/8 10/2/2 8/15/9
f 8/16/9 10/2/2 9/17/10
f 9/18/10 10/2/2 11/19/11
f 11/20/11 10/2/2 12/21/12
f 12/22/12 10/2/2 13/23/13
f 13/24/13 10/2/2 14/25/14
f 14/26/14 10/2/2 15/27/15
f 15/28/15 10/2/2 16/29/16
f 16/30/16 10/2/2 17/31/17
f 17/32/17 10/2/2 18/33/18
f 18/34/18 10/2/2 19/35/19
f 19/36/19 10/2/2 20/37/20
f 20/38/20 10/2/2 21/39/21
f 21/40/21 10/2/2 22/41/22
f 22/42/22 10/2/2 23/43/23
f 23/44/23 10/2/2 24/45/24
f 24/46/24 10/2/2 25/47/25
f 25/48/25 10/2/2 26/49/26
f 26/50/26 10/2/2 27/51/27
f 27/52/27 10/2/2 28/53/28
f 28/54/28 10/2/2 29/55/29
f 29/56/29 10/2/2 30/57/30
f 30/58/30 10/2/2 31/59/31
f 31/60/31 10/2/2 32/61/32
f 32/62/32 10/2/2 33/63/33
f 33/64/33 10/2/2 1/65/1
f 17/66/17 25/67/25 8/68/9
f 33/69/33 1/70/1 2/71/3
f 2/71/3 3/72/4 4/73/5
f 4/73/5 5/74/6 6/75/7
f 6/75/7 7/76/8 4/73/5
f 8/68/9 9/77/10 11/78/11
f 11/78/11 12/79/12 8/68/9
f 13/80/13 14/81/14 17/66/17
f 15/82/15 16/83/16 17/66/17
f 17/66/17 18/84/18 19/85/19
f 19/85/19 20/86/20 17/66/17
f 21/87/21 22/88/22 23/89/23
f 23/89/23 24/90/24 25/67/25
f 25/67/25 26/91/26 27/92/27
f 27/92/27 28/93/28 29/94/29
f 29/94/29 30/95/30 33/69/33
f 31/96/31 32/97/32 33/69/33
f 33/69/33 2/71/3 8/68/9
f 4/73/5 7/76/8 8/68/9
f 8/68/9 12/79/12 13/80/13
f 14/81/14 15/82/15 17/66/17
f 17/66/17 20/86/20 21/87/21
f 21/87/21 23/89/23 25/67/25
f 25/67/25 27/92/27 33/69/33
f 30/95/30 31/96/31 33/69/33
f 2/71/3 4/73/5 8/68/9
f 8/68/9 13/80/13 17/66/17
f 17/66/17 21/87/21 25/67/25
f 27/92/27 29/94/29 33/69/33
f 33/69/33 8/68/9 25/67/25
